<?xml version="1.0" encoding="UTF-8" standalone="no"?>
<!-- Generator: Adobe Illustrator 19.0.0, SVG Export Plug-In . SVG Version: 6.00 Build 0)  -->

<svg
   xmlns:dc="http://purl.org/dc/elements/1.1/"
   xmlns:cc="http://creativecommons.org/ns#"
   xmlns:rdf="http://www.w3.org/1999/02/22-rdf-syntax-ns#"
   xmlns:svg="http://www.w3.org/2000/svg"
   xmlns="http://www.w3.org/2000/svg"
   xmlns:sodipodi="http://sodipodi.sourceforge.net/DTD/sodipodi-0.dtd"
   xmlns:inkscape="http://www.inkscape.org/namespaces/inkscape"
   version="1.1"
   id="Capa_1"
   x="0px"
   y="0px"
   viewBox="0 0 32.857 32.857"
   style="enable-background:new 0 0 32.857 32.857;"
   xml:space="preserve"
   inkscape:version="0.91 r13725"
   sodipodi:docname="clock.svg"><metadata
     id="metadata45"><rdf:RDF><cc:Work
         rdf:about=""><dc:format>image/svg+xml</dc:format><dc:type
           rdf:resource="http://purl.org/dc/dcmitype/StillImage" /></cc:Work></rdf:RDF></metadata><defs
     id="defs43" /><sodipodi:namedview
     pagecolor="#ffffff"
     bordercolor="#666666"
     borderopacity="1"
     objecttolerance="10"
     gridtolerance="10"
     guidetolerance="10"
     inkscape:pageopacity="0"
     inkscape:pageshadow="2"
     inkscape:window-width="1366"
     inkscape:window-height="744"
     id="namedview41"
     showgrid="false"
     inkscape:zoom="18.473994"
     inkscape:cx="16.374869"
     inkscape:cy="16.428498"
     inkscape:window-x="0"
     inkscape:window-y="24"
     inkscape:window-maximized="1"
     inkscape:current-layer="g3" /><g
     id="g3"><g
       id="use3379"
       style="fill:#c1c1c1;fill-opacity:1;stroke:none"><g
         id="g4195"><path
           inkscape:connector-curvature="0"
           d="M 16.428,32.857 C 7.369,32.857 0,25.489 0,16.432 0,7.371 7.369,0 16.428,0 c 9.06,0 16.43,7.371 16.43,16.432 -10e-4,9.057 -7.371,16.425 -16.43,16.425 z M 16.428,1 C 7.921,1 1,7.923 1,16.432 c 0,8.506 6.921,15.426 15.428,15.426 8.508,0 15.43,-6.92 15.43,-15.426 C 31.857,7.923 24.936,1 16.428,1 Z"
           id="path4197" /></g></g><path
       d="M22.791,16.932h-6.363c-0.276,0-0.5-0.224-0.5-0.5V6.844c0-0.276,0.224-0.5,0.5-0.5s0.5,0.224,0.5,0.5v9.088h5.863   c0.276,0,0.5,0.224,0.5,0.5S23.067,16.932,22.791,16.932z"
       id="path9"
       style="fill:#c1c1c1;fill-opacity:1" /></g><g
     id="g11" /><g
     id="g13" /><g
     id="g15" /><g
     id="g17" /><g
     id="g19" /><g
     id="g21" /><g
     id="g23" /><g
     id="g25" /><g
     id="g27" /><g
     id="g29" /><g
     id="g31" /><g
     id="g33" /><g
     id="g35" /><g
     id="g37" /><g
     id="g39" /></svg>