<?xml version="1.0" encoding="UTF-8"?>
<svg width="23px" height="11px" viewBox="0 0 23 11" version="1.1" xmlns="http://www.w3.org/2000/svg" xmlns:xlink="http://www.w3.org/1999/xlink">
    <!-- Generator: Sketch 47 (45396) - http://www.bohemiancoding.com/sketch -->
    <title>Combined Shape</title>
    <desc>Created with Sketch.</desc>
    <defs></defs>
    <g id="Page-1" stroke="none" stroke-width="1" fill="none" fill-rule="evenodd">
        <g id="LEHTO-UI-Kit" transform="translate(-71.000000, -923.000000)" fill-rule="nonzero" fill="#FFFFFF">
            <path d="M71.5,924 C71.2238576,924 71,923.776142 71,923.5 C71,923.223858 71.2238576,923 71.5,923 L93.5,923 C93.7761424,923 94,923.223858 94,923.5 C94,923.776142 93.7761424,924 93.5,924 L71.5,924 Z M71.5,929 C71.2238576,929 71,928.776142 71,928.5 C71,928.223858 71.2238576,928 71.5,928 L93.5,928 C93.7761424,928 94,928.223858 94,928.5 C94,928.776142 93.7761424,929 93.5,929 L71.5,929 Z M71.5,934 C71.2238576,934 71,933.776142 71,933.5 C71,933.223858 71.2238576,933 71.5,933 L93.5,933 C93.7761424,933 94,933.223858 94,933.5 C94,933.776142 93.7761424,934 93.5,934 L71.5,934 Z" id="Combined-Shape"></path>
        </g>
    </g>
</svg>