<?xml version="1.0" encoding="UTF-8"?>
<svg width="23px" height="11px" viewBox="0 0 23 11" version="1.1" xmlns="http://www.w3.org/2000/svg" xmlns:xlink="http://www.w3.org/1999/xlink">
    <!-- Generator: Sketch 47 (45396) - http://www.bohemiancoding.com/sketch -->
    <title>Combined Shape</title>
    <desc>Created with Sketch.</desc>
    <defs></defs>
    <g id="Page-1" stroke="none" stroke-width="1" fill="none" fill-rule="evenodd">
        <g id="LEHTO-UI-Kit" transform="translate(-71.000000, -863.000000)" fill-rule="nonzero" fill="#2E4460">
            <path d="M71.5,864 C71.2238576,864 71,863.776142 71,863.5 C71,863.223858 71.2238576,863 71.5,863 L93.5,863 C93.7761424,863 94,863.223858 94,863.5 C94,863.776142 93.7761424,864 93.5,864 L71.5,864 Z M71.5,869 C71.2238576,869 71,868.776142 71,868.5 C71,868.223858 71.2238576,868 71.5,868 L93.5,868 C93.7761424,868 94,868.223858 94,868.5 C94,868.776142 93.7761424,869 93.5,869 L71.5,869 Z M71.5,874 C71.2238576,874 71,873.776142 71,873.5 C71,873.223858 71.2238576,873 71.5,873 L93.5,873 C93.7761424,873 94,873.223858 94,873.5 C94,873.776142 93.7761424,874 93.5,874 L71.5,874 Z" id="Combined-Shape"></path>
        </g>
    </g>
</svg>